<svg width="45" height="42" viewBox="0 0 45 42" fill="none" xmlns="http://www.w3.org/2000/svg">
<path fill-rule="evenodd" clip-rule="evenodd" d="M7.53188 30.6394C7.8238 30.9324 8.0475 31.2863 8.18702 31.6756C8.32655 32.065 8.37846 32.4804 8.33906 32.8922C8.1414 34.7979 7.76665 36.681 7.21969 38.5172C11.1431 37.6087 13.5394 36.5569 14.6278 36.0056C15.2452 35.6929 15.9561 35.6188 16.6247 35.7975C18.5412 36.3084 20.5165 36.5656 22.5 36.5625C33.7388 36.5625 42.1875 28.6678 42.1875 19.6875C42.1875 10.71 33.7388 2.8125 22.5 2.8125C11.2612 2.8125 2.8125 10.71 2.8125 19.6875C2.8125 23.8162 4.54781 27.6469 7.53188 30.6394ZM6.14531 41.6222C5.47894 41.7543 4.81041 41.8752 4.14 41.985C3.5775 42.075 3.15 41.49 3.37219 40.9669C3.62191 40.3779 3.85081 39.7804 4.05844 39.1753L4.06687 39.1472C4.76437 37.1222 5.3325 34.7934 5.54063 32.625C2.08969 29.1656 0 24.6375 0 19.6875C0 8.81437 10.0744 0 22.5 0C34.9256 0 45 8.81437 45 19.6875C45 30.5606 34.9256 39.375 22.5 39.375C20.2715 39.378 18.0523 39.0887 15.8991 38.5144C14.4366 39.2541 11.2894 40.6012 6.14531 41.6222Z" fill="#33CA99"/>
<path d="M14.0625 19.6875C14.0625 20.4334 13.7662 21.1488 13.2387 21.6762C12.7113 22.2037 11.9959 22.5 11.25 22.5C10.5041 22.5 9.78871 22.2037 9.26126 21.6762C8.73382 21.1488 8.4375 20.4334 8.4375 19.6875C8.4375 18.9416 8.73382 18.2262 9.26126 17.6988C9.78871 17.1713 10.5041 16.875 11.25 16.875C11.9959 16.875 12.7113 17.1713 13.2387 17.6988C13.7662 18.2262 14.0625 18.9416 14.0625 19.6875ZM25.3125 19.6875C25.3125 20.4334 25.0162 21.1488 24.4887 21.6762C23.9613 22.2037 23.2459 22.5 22.5 22.5C21.7541 22.5 21.0387 22.2037 20.5113 21.6762C19.9838 21.1488 19.6875 20.4334 19.6875 19.6875C19.6875 18.9416 19.9838 18.2262 20.5113 17.6988C21.0387 17.1713 21.7541 16.875 22.5 16.875C23.2459 16.875 23.9613 17.1713 24.4887 17.6988C25.0162 18.2262 25.3125 18.9416 25.3125 19.6875ZM36.5625 19.6875C36.5625 20.4334 36.2662 21.1488 35.7387 21.6762C35.2113 22.2037 34.4959 22.5 33.75 22.5C33.0041 22.5 32.2887 22.2037 31.7613 21.6762C31.2338 21.1488 30.9375 20.4334 30.9375 19.6875C30.9375 18.9416 31.2338 18.2262 31.7613 17.6988C32.2887 17.1713 33.0041 16.875 33.75 16.875C34.4959 16.875 35.2113 17.1713 35.7387 17.6988C36.2662 18.2262 36.5625 18.9416 36.5625 19.6875Z" fill="#33CA99"/>
</svg>
