<svg width="45" height="45" viewBox="0 0 45 45" fill="none" xmlns="http://www.w3.org/2000/svg">
<path fill-rule="evenodd" clip-rule="evenodd" d="M38.445 6.54036C36.3687 4.4607 33.8986 2.81178 31.1777 1.68912C28.4568 0.566459 25.5391 -0.00763984 22.5937 7.67686e-05C10.2469 7.67686e-05 0.1875 10.0046 0.1875 22.2957C0.178142 26.2093 1.20929 30.0557 3.17625 33.4444L0 45L11.88 41.8941C15.165 43.6755 18.8455 44.6104 22.5862 44.6136H22.5956C34.9444 44.6136 44.9925 34.611 45 22.3106C45 16.3545 42.6712 10.755 38.445 6.5385V6.54036ZM22.5937 40.8451H22.5862C19.2517 40.8451 15.9783 39.9536 13.1081 38.2637L12.4275 37.8624L5.37375 39.701L7.25625 32.8602L6.8175 32.1602C4.95112 29.2058 3.96303 25.7857 3.9675 22.2957C3.9675 12.0821 12.3244 3.77045 22.6013 3.77045C25.047 3.76436 27.4697 4.24129 29.7291 5.17363C31.9884 6.10597 34.0396 7.47519 35.7637 9.20202C37.4964 10.9206 38.8698 12.9638 39.8047 15.2138C40.7396 17.4637 41.2175 19.8758 41.2106 22.3106C41.2106 32.5335 32.8537 40.8451 22.5919 40.8451H22.5937ZM32.8031 26.962C32.2463 26.6857 29.4919 25.3381 28.98 25.1552C28.4681 24.9648 28.0931 24.8771 27.72 25.4314C27.345 25.9914 26.2763 27.2475 25.9481 27.619C25.6256 27.9829 25.2956 28.0352 24.7388 27.7571C24.1763 27.4808 22.3744 26.8892 20.235 24.9872C18.5719 23.5126 17.445 21.6834 17.1225 21.1291C16.7925 20.5691 17.085 20.2705 17.3644 19.9905C17.6194 19.7441 17.9269 19.3428 18.2062 19.0143C18.4837 18.6951 18.5813 18.4618 18.7688 18.0885C18.9525 17.7171 18.8587 17.3886 18.7181 17.1123C18.5794 16.8361 17.46 14.0867 16.9913 12.9705C16.5356 11.8842 16.0744 12.0373 15.7313 12.0167C15.4088 12.0018 15.0356 12.0018 14.6625 12.0018C14.2875 12.0018 13.68 12.1399 13.1663 12.7017C12.6544 13.2561 11.2106 14.6056 11.2106 17.3456C11.2106 20.0876 13.2169 22.7399 13.4981 23.1132C13.7756 23.4772 17.445 29.1047 23.0606 31.52C24.3956 32.0949 25.4344 32.4383 26.2481 32.694C27.5888 33.1159 28.8113 33.058 29.7787 32.918C30.855 32.7594 33.0881 31.5704 33.5569 30.2657C34.02 28.9685 34.02 27.8523 33.8794 27.619C33.7406 27.3857 33.3675 27.2457 32.8031 26.962Z" fill="#33CA99"/>
</svg>
